<svg xmlns="http://www.w3.org/2000/svg" xmlns:xlink="http://www.w3.org/1999/xlink" width="938" height="473" viewBox="0 0 938 473">
  <defs>
    <filter id="Ellipse_1" x="230" y="0" width="473" height="473" filterUnits="userSpaceOnUse">
      <feOffset dy="23" input="SourceAlpha"/>
      <feGaussianBlur stdDeviation="13" result="blur"/>
      <feFlood flood-opacity="0.322"/>
      <feComposite operator="in" in2="blur"/>
      <feComposite in="SourceGraphic"/>
    </filter>
    <filter id="Ellipse_2" x="0" y="50" width="333" height="333" filterUnits="userSpaceOnUse">
      <feOffset dy="3" input="SourceAlpha"/>
      <feGaussianBlur stdDeviation="3" result="blur-2"/>
      <feFlood flood-opacity="0.322"/>
      <feComposite operator="in" in2="blur-2"/>
      <feComposite in="SourceGraphic"/>
    </filter>
    <filter id="Ellipse_3" x="605" y="50" width="333" height="333" filterUnits="userSpaceOnUse">
      <feOffset dy="3" input="SourceAlpha"/>
      <feGaussianBlur stdDeviation="3" result="blur-3"/>
      <feFlood flood-opacity="0.322"/>
      <feComposite operator="in" in2="blur-3"/>
      <feComposite in="SourceGraphic"/>
    </filter>
  </defs>
  <g id="mobile-usage" transform="translate(-848 -2216)">
    <g transform="matrix(1, 0, 0, 1, 848, 2216)" filter="url(#Ellipse_1)">
      <circle id="Ellipse_1-2" data-name="Ellipse 1" cx="197.5" cy="197.5" r="197.5" transform="translate(269 16)" fill="rgba(124,44,255,0.73)"/>
    </g>
    <g transform="matrix(1, 0, 0, 1, 848, 2216)" filter="url(#Ellipse_2)">
      <circle id="Ellipse_2-2" data-name="Ellipse 2" cx="157.5" cy="157.5" r="157.5" transform="translate(9 56)" fill="rgba(124,44,255,0.73)"/>
    </g>
    <g transform="matrix(1, 0, 0, 1, 848, 2216)" filter="url(#Ellipse_3)">
      <circle id="Ellipse_3-2" data-name="Ellipse 3" cx="157.5" cy="157.5" r="157.5" transform="translate(614 56)" fill="rgba(124,44,255,0.73)"/>
    </g>
    <path id="Path_11" data-name="Path 11" d="M55.692-71.91v9.792L23.052,0H9.078L41.616-61.3H5.61V-71.91ZM105.57-36.924a17.426,17.426,0,0,1,9.741,6.324,18.26,18.26,0,0,1,3.417,11.22q0,9.486-7.14,14.841T91.8.816q-12.648,0-19.788-5.355T64.872-19.38A18.294,18.294,0,0,1,68.34-30.651a17.088,17.088,0,0,1,9.792-6.273A17.7,17.7,0,0,1,69.666-43.3a17.147,17.147,0,0,1-3.06-10.149,16.954,16.954,0,0,1,6.732-14.178q6.732-5.2,18.462-5.2t18.462,5.2a16.954,16.954,0,0,1,6.732,14.178,17.55,17.55,0,0,1-3.06,10.3A16.471,16.471,0,0,1,105.57-36.924ZM91.8-62.526q-12.75,0-12.75,10.4,0,5.2,3.213,7.905t9.537,2.7q6.324,0,9.537-2.7t3.213-7.905Q104.55-62.526,91.8-62.526Zm0,53.04q14.586,0,14.586-10.914T91.8-31.314q-14.586,0-14.586,10.914T91.8-9.486ZM145.35-2.04l42.126-72.726,8.466,4.9L153.816,2.856Zm-.408-26.928q-8.568,0-13.362-5.61T126.786-51q0-10.71,4.794-16.32t13.362-5.61q8.568,0,13.413,5.61T163.2-51q0,10.812-4.845,16.422T144.942-28.968Zm0-8.262a6.013,6.013,0,0,0,5.661-3.213q1.785-3.213,1.785-10.557,0-7.14-1.836-10.4a6.023,6.023,0,0,0-5.61-3.264,5.929,5.929,0,0,0-5.559,3.213Q137.6-58.242,137.6-51q0,7.344,1.785,10.557A5.929,5.929,0,0,0,144.942-37.23ZM196.248.714q-8.568,0-13.362-5.61T178.092-21.42q0-10.71,4.845-16.269t13.311-5.559q8.568,0,13.362,5.61t4.794,16.32q0,10.812-4.794,16.422T196.248.714Zm0-8.262a6.04,6.04,0,0,0,5.61-3.213q1.836-3.213,1.836-10.557,0-7.14-1.836-10.4a6.023,6.023,0,0,0-5.61-3.264,6.023,6.023,0,0,0-5.61,3.264q-1.836,3.264-1.836,10.4,0,7.344,1.836,10.557A6.04,6.04,0,0,0,196.248-7.548Z" transform="translate(1205 2463)" fill="#fff"/>
    <path id="Path_15" data-name="Path 15" d="M27.04-36.08a18.636,18.636,0,0,1,9.32,2.28,15.743,15.743,0,0,1,6.24,6.36,19.411,19.411,0,0,1,2.2,9.36,18.663,18.663,0,0,1-2.56,9.84A17.12,17.12,0,0,1,35-1.68,24.492,24.492,0,0,1,24,.64a31.5,31.5,0,0,1-10.44-1.8A25.361,25.361,0,0,1,5.04-5.92l3.44-7.52Q16.16-7.6,24.16-7.6q5.28,0,8.08-2.64t2.8-7.52a9.948,9.948,0,0,0-2.84-7.48A10.6,10.6,0,0,0,24.48-28a15.7,15.7,0,0,0-6.2,1.24,16.459,16.459,0,0,0-5.24,3.56H6.88V-56.4H42.24v8H16.96v15.2A17.04,17.04,0,0,1,27.04-36.08ZM91.76-8.32V0H53.84V-7.6l19.2-20.64A31.579,31.579,0,0,0,77.96-35a13.453,13.453,0,0,0,1.56-6.12,7.364,7.364,0,0,0-2.2-5.8q-2.2-1.96-6.44-1.96-7.6,0-15.28,5.84l-3.44-7.52a25.257,25.257,0,0,1,8.6-4.76,32.2,32.2,0,0,1,10.52-1.8q8.48,0,13.44,4.16a13.863,13.863,0,0,1,4.96,11.2A20.682,20.682,0,0,1,87.6-32.6a40.6,40.6,0,0,1-7.04,9.56L66.72-8.32ZM114.08-1.6l33.04-57.04,6.64,3.84L120.72,2.24Zm-.32-21.12q-6.72,0-10.48-4.4T99.52-40q0-8.4,3.76-12.8t10.48-4.4q6.72,0,10.52,4.4t3.8,12.8q0,8.48-3.8,12.88T113.76-22.72Zm0-6.48a4.716,4.716,0,0,0,4.44-2.52q1.4-2.52,1.4-8.28,0-5.6-1.44-8.16a4.724,4.724,0,0,0-4.4-2.56,4.65,4.65,0,0,0-4.36,2.52Q108-45.68,108-40q0,5.76,1.4,8.28A4.65,4.65,0,0,0,113.76-29.2ZM154,.56q-6.72,0-10.48-4.4T139.76-16.8q0-8.4,3.8-12.76T154-33.92q6.72,0,10.48,4.4t3.76,12.8q0,8.48-3.76,12.88T154,.56Zm0-6.48a4.737,4.737,0,0,0,4.4-2.52q1.44-2.52,1.44-8.28,0-5.6-1.44-8.16a4.724,4.724,0,0,0-4.4-2.56,4.724,4.724,0,0,0-4.4,2.56q-1.44,2.56-1.44,8.16,0,5.76,1.44,8.28A4.737,4.737,0,0,0,154-5.92Z" transform="translate(1534 2456)" fill="#fff"/>
    <path id="Path_10" data-name="Path 10" d="M45.84-11.04H37.92V0H27.84V-11.04H3.36v-7.6L29.6-56.4h8.32v37.36h7.92Zm-18-8V-40.56L12.96-19.04ZM82.8-28.96A13.667,13.667,0,0,1,90.44-24a14.322,14.322,0,0,1,2.68,8.8,13.734,13.734,0,0,1-5.6,11.64Q81.92.64,72,.64T56.48-3.56a13.734,13.734,0,0,1-5.6-11.64,14.349,14.349,0,0,1,2.72-8.84,13.4,13.4,0,0,1,7.68-4.92,13.886,13.886,0,0,1-6.64-5,13.449,13.449,0,0,1-2.4-7.96,13.3,13.3,0,0,1,5.28-11.12Q62.8-57.12,72-57.12t14.48,4.08a13.3,13.3,0,0,1,5.28,11.12,13.764,13.764,0,0,1-2.4,8.08A12.918,12.918,0,0,1,82.8-28.96ZM72-49.04q-10,0-10,8.16a7.645,7.645,0,0,0,2.52,6.2q2.52,2.12,7.48,2.12t7.48-2.12A7.645,7.645,0,0,0,82-40.88Q82-49.04,72-49.04Zm0,41.6q11.44,0,11.44-8.56T72-24.56q-11.44,0-11.44,8.56T72-7.44ZM114-1.6l33.04-57.04,6.64,3.84L120.64,2.24Zm-.32-21.12q-6.72,0-10.48-4.4T99.44-40q0-8.4,3.76-12.8t10.48-4.4q6.72,0,10.52,4.4T128-40q0,8.48-3.8,12.88T113.68-22.72Zm0-6.48a4.716,4.716,0,0,0,4.44-2.52q1.4-2.52,1.4-8.28,0-5.6-1.44-8.16a4.724,4.724,0,0,0-4.4-2.56,4.65,4.65,0,0,0-4.36,2.52q-1.4,2.52-1.4,8.2,0,5.76,1.4,8.28A4.65,4.65,0,0,0,113.68-29.2ZM153.92.56q-6.72,0-10.48-4.4T139.68-16.8q0-8.4,3.8-12.76t10.44-4.36q6.72,0,10.48,4.4t3.76,12.8q0,8.48-3.76,12.88T153.92.56Zm0-6.48a4.737,4.737,0,0,0,4.4-2.52q1.44-2.52,1.44-8.28,0-5.6-1.44-8.16a4.724,4.724,0,0,0-4.4-2.56,4.724,4.724,0,0,0-4.4,2.56q-1.44,2.56-1.44,8.16,0,5.76,1.44,8.28A4.737,4.737,0,0,0,153.92-5.92Z" transform="translate(929 2456)" fill="#fff"/>
    <path id="Path_12" data-name="Path 12" d="M-17-2.7V0H-29.328V-2.47l6.24-6.708a10.263,10.263,0,0,0,1.6-2.2,4.372,4.372,0,0,0,.507-1.989,2.393,2.393,0,0,0-.715-1.885,3.053,3.053,0,0,0-2.093-.637,8.2,8.2,0,0,0-4.966,1.9l-1.118-2.444a8.209,8.209,0,0,1,2.8-1.547,10.464,10.464,0,0,1,3.419-.585,6.583,6.583,0,0,1,4.368,1.352,4.506,4.506,0,0,1,1.612,3.64,6.722,6.722,0,0,1-.676,2.977,13.193,13.193,0,0,1-2.288,3.107l-4.5,4.784ZM-7.8.234a5.723,5.723,0,0,1-4.966-2.405q-1.716-2.4-1.716-7.007,0-4.55,1.716-6.942A5.734,5.734,0,0,1-7.8-18.512,5.734,5.734,0,0,1-2.834-16.12q1.716,2.392,1.716,6.942,0,4.576-1.716,6.994A5.712,5.712,0,0,1-7.8.234Zm0-2.626A2.69,2.69,0,0,0-5.226-4.017,12.29,12.29,0,0,0-4.42-9.178a12.017,12.017,0,0,0-.806-5.109,2.694,2.694,0,0,0-2.574-1.6,2.694,2.694,0,0,0-2.574,1.6,12.017,12.017,0,0,0-.806,5.109,12.29,12.29,0,0,0,.806,5.161A2.69,2.69,0,0,0-7.8-2.392ZM14.222-2.7V0H1.9V-2.47l6.24-6.708a10.263,10.263,0,0,0,1.6-2.2,4.372,4.372,0,0,0,.507-1.989,2.393,2.393,0,0,0-.715-1.885,3.053,3.053,0,0,0-2.093-.637,8.2,8.2,0,0,0-4.966,1.9L1.352-16.432a8.209,8.209,0,0,1,2.8-1.547,10.464,10.464,0,0,1,3.419-.585,6.583,6.583,0,0,1,4.368,1.352,4.506,4.506,0,0,1,1.612,3.64A6.722,6.722,0,0,1,12.87-10.6a13.193,13.193,0,0,1-2.288,3.107L6.084-2.7Zm9.2,2.938A5.723,5.723,0,0,1,18.46-2.171q-1.716-2.4-1.716-7.007,0-4.55,1.716-6.942a5.734,5.734,0,0,1,4.966-2.392,5.734,5.734,0,0,1,4.966,2.392q1.716,2.392,1.716,6.942,0,4.576-1.716,6.994A5.712,5.712,0,0,1,23.426.234Zm0-2.626A2.69,2.69,0,0,0,26-4.017a12.29,12.29,0,0,0,.806-5.161A12.017,12.017,0,0,0,26-14.287a2.694,2.694,0,0,0-2.574-1.6,2.694,2.694,0,0,0-2.574,1.6,12.017,12.017,0,0,0-.806,5.109,12.29,12.29,0,0,0,.806,5.161A2.69,2.69,0,0,0,23.426-2.392Z" transform="translate(1315 2351)" fill="#fff"/>
    <path id="Path_13" data-name="Path 13" d="M-56.609.112A4.511,4.511,0,0,1-59-.5a4.043,4.043,0,0,1-1.561-1.75A6.1,6.1,0,0,1-61.1-4.928a6.254,6.254,0,0,1,.539-2.7,3.949,3.949,0,0,1,1.554-1.75,4.579,4.579,0,0,1,2.4-.609,4.579,4.579,0,0,1,2.4.609,3.949,3.949,0,0,1,1.554,1.75,6.219,6.219,0,0,1,.539,2.681,6.151,6.151,0,0,1-.546,2.681A4.036,4.036,0,0,1-54.222-.5,4.511,4.511,0,0,1-56.609.112Zm0-.98a3,3,0,0,0,2.443-1.057,4.613,4.613,0,0,0,.875-3.017,4.61,4.61,0,0,0-.868-3.01A3,3,0,0,0-56.609-9a3,3,0,0,0-2.443,1.057,4.589,4.589,0,0,0-.875,3,4.619,4.619,0,0,0,.875,3.01A2.988,2.988,0,0,0-56.609-.868Zm7.91-5.95h1.932v.9H-48.7V0h-1.134V-5.922h-1.33v-.9h1.33v-.224A2.843,2.843,0,0,1-49.154-9.1a3.066,3.066,0,0,1,2.093-.784l.56-.028.084.882-.644.042a1.785,1.785,0,0,0-1.246.483A1.884,1.884,0,0,0-48.7-7.2Zm9.688,6.006A4.554,4.554,0,0,0-38.4-.854l-.056.9a4.092,4.092,0,0,1-.7.056,2.468,2.468,0,0,1-1.855-.644,2.47,2.47,0,0,1-.623-1.792V-5.922h-1.33v-.9h1.33V-8.89H-40.5v2.072h1.932v.9H-40.5v3.5Q-40.5-.812-39.011-.812Zm5.194-6.174q2.45,0,2.45,2.7V0H-32.5V-4.214A2.113,2.113,0,0,0-32.872-5.6a1.475,1.475,0,0,0-1.183-.434,2,2,0,0,0-1.5.574,2.13,2.13,0,0,0-.56,1.554V0h-1.134V-9.87h1.134v4.144a2.283,2.283,0,0,1,.931-.938A2.822,2.822,0,0,1-33.817-6.986Zm10.234,3.752h-4.984a2.685,2.685,0,0,0,.644,1.8,2.208,2.208,0,0,0,1.666.609,3.375,3.375,0,0,0,2.184-.812l.378.826a3.2,3.2,0,0,1-1.148.665A4.294,4.294,0,0,1-26.271.1,3.353,3.353,0,0,1-28.784-.84,3.547,3.547,0,0,1-29.7-3.43,4.065,4.065,0,0,1-29.3-5.285a3.029,3.029,0,0,1,1.141-1.253,3.15,3.15,0,0,1,1.673-.448,2.667,2.667,0,0,1,2.128.889,3.608,3.608,0,0,1,.77,2.443ZM-26.467-6.1a1.9,1.9,0,0,0-1.435.56,2.559,2.559,0,0,0-.637,1.582h3.962A2.425,2.425,0,0,0-25.1-5.551,1.737,1.737,0,0,0-26.467-6.1Zm14.182-.7L-15.225,0h-1.064l-2.926-6.8h1.2l2.282,5.572,2.31-5.572Zm1.176-.014h1.134V0h-1.134Zm1.26-2.954V-8.5h-1.372V-9.772ZM-5.551.1a4,4,0,0,1-2.73-.882l.378-.84A3.653,3.653,0,0,0-6.79-1a4.04,4.04,0,0,0,1.281.189,2.128,2.128,0,0,0,1.155-.259.839.839,0,0,0,.4-.749.821.821,0,0,0-.266-.644A2.006,2.006,0,0,0-5.1-2.842l-1.148-.266a2.6,2.6,0,0,1-1.33-.672,1.623,1.623,0,0,1-.462-1.176,1.779,1.779,0,0,1,.714-1.47,3,3,0,0,1,1.9-.56,3.991,3.991,0,0,1,1.358.231,2.867,2.867,0,0,1,1.078.665l-.378.826a3.107,3.107,0,0,0-2.058-.8,1.952,1.952,0,0,0-1.113.273.873.873,0,0,0-.4.763.88.88,0,0,0,.245.651A1.625,1.625,0,0,0-5.9-4l1.162.28a2.946,2.946,0,0,1,1.414.679,1.587,1.587,0,0,1,.462,1.183A1.685,1.685,0,0,1-3.584-.434,3.248,3.248,0,0,1-5.551.1Zm4.41-6.916H-.007V0H-1.141ZM.119-9.772V-8.5H-1.253V-9.772ZM5.1-.812a4.554,4.554,0,0,0,.616-.042l-.056.9a4.092,4.092,0,0,1-.7.056A2.468,2.468,0,0,1,3.108-.546a2.47,2.47,0,0,1-.623-1.792V-5.922H1.155v-.9h1.33V-8.89H3.619v2.072H5.551v.9H3.619v3.5Q3.619-.812,5.1-.812ZM9.177.1a4,4,0,0,1-2.73-.882l.378-.84A3.653,3.653,0,0,0,7.938-1a4.04,4.04,0,0,0,1.281.189,2.128,2.128,0,0,0,1.155-.259.839.839,0,0,0,.4-.749.821.821,0,0,0-.266-.644,2.006,2.006,0,0,0-.882-.378L8.477-3.108a2.6,2.6,0,0,1-1.33-.672,1.623,1.623,0,0,1-.462-1.176A1.779,1.779,0,0,1,7.4-6.426a3,3,0,0,1,1.9-.56,3.991,3.991,0,0,1,1.358.231,2.867,2.867,0,0,1,1.078.665l-.378.826a3.107,3.107,0,0,0-2.058-.8,1.952,1.952,0,0,0-1.113.273.873.873,0,0,0-.4.763.88.88,0,0,0,.245.651A1.625,1.625,0,0,0,8.827-4l1.162.28a2.946,2.946,0,0,1,1.414.679,1.587,1.587,0,0,1,.462,1.183,1.685,1.685,0,0,1-.721,1.428A3.248,3.248,0,0,1,9.177.1ZM20.083.1a3.4,3.4,0,0,1-1.75-.434,2.9,2.9,0,0,1-1.141-1.225,4.07,4.07,0,0,1-.4-1.855,4.04,4.04,0,0,1,.413-1.869,3.046,3.046,0,0,1,1.162-1.253,3.358,3.358,0,0,1,1.757-.448,3.823,3.823,0,0,1,1.344.245,2.919,2.919,0,0,1,1.064.651l-.378.84a3.1,3.1,0,0,0-1.96-.784,2.042,2.042,0,0,0-1.638.686,2.88,2.88,0,0,0-.588,1.932,2.8,2.8,0,0,0,.588,1.9,2.062,2.062,0,0,0,1.638.672,3.1,3.1,0,0,0,1.96-.784l.378.84a3.136,3.136,0,0,1-1.092.644A3.963,3.963,0,0,1,20.083.1Zm6.65,0a3.282,3.282,0,0,1-1.7-.434A2.892,2.892,0,0,1,23.9-1.575a4.158,4.158,0,0,1-.4-1.869,4.158,4.158,0,0,1,.4-1.869,2.892,2.892,0,0,1,1.134-1.239,3.282,3.282,0,0,1,1.7-.434,3.32,3.32,0,0,1,1.708.434,2.879,2.879,0,0,1,1.141,1.239,4.158,4.158,0,0,1,.4,1.869,4.158,4.158,0,0,1-.4,1.869A2.879,2.879,0,0,1,28.441-.336,3.32,3.32,0,0,1,26.733.1Zm0-.938A1.876,1.876,0,0,0,28.28-1.5a3.019,3.019,0,0,0,.539-1.939,3,3,0,0,0-.546-1.925,1.864,1.864,0,0,0-1.54-.679,1.864,1.864,0,0,0-1.54.679,3,3,0,0,0-.546,1.925,3.024,3.024,0,0,0,.539,1.932A1.868,1.868,0,0,0,26.733-.84Zm12.53-6.146q2.268,0,2.268,2.7V0H40.4V-4.228A2.283,2.283,0,0,0,40.068-5.6a1.241,1.241,0,0,0-1.057-.434,1.674,1.674,0,0,0-1.344.574,2.337,2.337,0,0,0-.49,1.568V0H36.043V-4.228a2.242,2.242,0,0,0-.336-1.379,1.271,1.271,0,0,0-1.064-.427A1.674,1.674,0,0,0,33.3-5.46a2.337,2.337,0,0,0-.49,1.568V0H31.675V-6.818h1.12V-5.74a2.215,2.215,0,0,1,.854-.924,2.434,2.434,0,0,1,1.26-.322,2.009,2.009,0,0,1,2.086,1.344,2.21,2.21,0,0,1,.9-.987A2.638,2.638,0,0,1,39.263-6.986Zm4.34.168h1.134V0H43.6Zm1.26-2.954V-8.5H43.491V-9.772Zm5.418,2.786q2.45,0,2.45,2.7V0H51.6V-4.214A2.113,2.113,0,0,0,51.226-5.6a1.475,1.475,0,0,0-1.183-.434,2,2,0,0,0-1.5.574,2.13,2.13,0,0,0-.56,1.554V0H46.851V-6.818h1.12V-5.7a2.3,2.3,0,0,1,.938-.959A2.814,2.814,0,0,1,50.281-6.986Zm10.626.168V-.462a3.107,3.107,0,0,1-.784,2.3,3.17,3.17,0,0,1-2.324.777,4.836,4.836,0,0,1-3.01-.924l.378-.84a5.52,5.52,0,0,0,1.288.644,4.327,4.327,0,0,0,1.344.2,1.964,1.964,0,0,0,1.484-.525,2.13,2.13,0,0,0,.5-1.533v-1.2a2.135,2.135,0,0,1-.9,1.008,2.831,2.831,0,0,1-1.435.35A3,3,0,0,1,55.86-.63a2.84,2.84,0,0,1-1.078-1.19A3.925,3.925,0,0,1,54.4-3.6a3.925,3.925,0,0,1,.385-1.778,2.84,2.84,0,0,1,1.078-1.19,3,3,0,0,1,1.589-.42,2.763,2.763,0,0,1,1.414.35,2.238,2.238,0,0,1,.91.994V-6.818Zm-3.234,5.67a1.924,1.924,0,0,0,1.54-.651,2.67,2.67,0,0,0,.56-1.8,2.67,2.67,0,0,0-.553-1.785,1.92,1.92,0,0,0-1.547-.651,1.962,1.962,0,0,0-1.561.651A2.626,2.626,0,0,0,55.545-3.6a2.648,2.648,0,0,0,.567,1.8A1.962,1.962,0,0,0,57.673-1.148ZM-57.995,12.182h1.932v.9h-1.932V19h-1.134V13.078h-1.33v-.9h1.33v-.224A2.843,2.843,0,0,1-58.45,9.9a3.066,3.066,0,0,1,2.093-.784l.56-.028.084.882-.644.042a1.785,1.785,0,0,0-1.246.483,1.884,1.884,0,0,0-.392,1.309Zm6.944.812-.742.07a2.153,2.153,0,0,0-1.519.658,2.086,2.086,0,0,0-.469,1.386V19h-1.134V12.182h1.106v1.19a2.506,2.506,0,0,1,2.254-1.33l.406-.028Zm3.766,6.1a3.282,3.282,0,0,1-1.7-.434,2.892,2.892,0,0,1-1.134-1.239,4.158,4.158,0,0,1-.4-1.869,4.158,4.158,0,0,1,.4-1.869,2.892,2.892,0,0,1,1.134-1.239,3.282,3.282,0,0,1,1.7-.434,3.32,3.32,0,0,1,1.708.434,2.879,2.879,0,0,1,1.141,1.239,4.158,4.158,0,0,1,.4,1.869,4.158,4.158,0,0,1-.4,1.869,2.879,2.879,0,0,1-1.141,1.239A3.32,3.32,0,0,1-47.285,19.1Zm0-.938a1.876,1.876,0,0,0,1.547-.665,3.019,3.019,0,0,0,.539-1.939,3,3,0,0,0-.546-1.925,1.864,1.864,0,0,0-1.54-.679,1.864,1.864,0,0,0-1.54.679,3,3,0,0,0-.546,1.925,3.024,3.024,0,0,0,.539,1.932A1.868,1.868,0,0,0-47.285,18.16Zm12.53-6.146q2.268,0,2.268,2.7V19h-1.134V14.772A2.283,2.283,0,0,0-33.95,13.4a1.241,1.241,0,0,0-1.057-.434,1.674,1.674,0,0,0-1.344.574,2.337,2.337,0,0,0-.49,1.568V19h-1.134V14.772a2.242,2.242,0,0,0-.336-1.379,1.271,1.271,0,0,0-1.064-.427,1.674,1.674,0,0,0-1.344.574,2.337,2.337,0,0,0-.49,1.568V19h-1.134V12.182h1.12V13.26a2.215,2.215,0,0,1,.854-.924,2.434,2.434,0,0,1,1.26-.322,2.009,2.009,0,0,1,2.086,1.344,2.21,2.21,0,0,1,.9-.987A2.638,2.638,0,0,1-34.755,12.014Zm15.54,0q2.268,0,2.268,2.7V19h-1.134V14.772A2.283,2.283,0,0,0-18.41,13.4a1.241,1.241,0,0,0-1.057-.434,1.674,1.674,0,0,0-1.344.574,2.337,2.337,0,0,0-.49,1.568V19h-1.134V14.772a2.242,2.242,0,0,0-.336-1.379,1.271,1.271,0,0,0-1.064-.427,1.674,1.674,0,0,0-1.344.574,2.337,2.337,0,0,0-.49,1.568V19H-26.8V12.182h1.12V13.26a2.215,2.215,0,0,1,.854-.924,2.434,2.434,0,0,1,1.26-.322,2.009,2.009,0,0,1,2.086,1.344,2.21,2.21,0,0,1,.9-.987A2.638,2.638,0,0,1-19.215,12.014Zm7.168,7.084a3.282,3.282,0,0,1-1.7-.434,2.892,2.892,0,0,1-1.134-1.239,4.158,4.158,0,0,1-.4-1.869,4.158,4.158,0,0,1,.4-1.869,2.892,2.892,0,0,1,1.134-1.239,3.282,3.282,0,0,1,1.7-.434,3.32,3.32,0,0,1,1.708.434A2.879,2.879,0,0,1-9.2,13.687a4.158,4.158,0,0,1,.4,1.869,4.158,4.158,0,0,1-.4,1.869,2.879,2.879,0,0,1-1.141,1.239A3.32,3.32,0,0,1-12.047,19.1Zm0-.938A1.876,1.876,0,0,0-10.5,17.5a3.019,3.019,0,0,0,.539-1.939,3,3,0,0,0-.546-1.925,1.864,1.864,0,0,0-1.54-.679,1.864,1.864,0,0,0-1.54.679,3,3,0,0,0-.546,1.925,3.024,3.024,0,0,0,.539,1.932A1.868,1.868,0,0,0-12.047,18.16Zm8.372-6.146a2.9,2.9,0,0,1,1.582.434A2.87,2.87,0,0,1-1.029,13.68a4.271,4.271,0,0,1,.378,1.848A4.353,4.353,0,0,1-1.029,17.4,2.957,2.957,0,0,1-2.093,18.65a2.828,2.828,0,0,1-1.582.448,2.7,2.7,0,0,1-1.393-.35,2.25,2.25,0,0,1-.9-.994V19H-7.1V9.13h1.134v4.228a2.25,2.25,0,0,1,.9-.994A2.7,2.7,0,0,1-3.675,12.014ZM-3.9,18.16a1.848,1.848,0,0,0,1.54-.693,3.062,3.062,0,0,0,.546-1.939,2.922,2.922,0,0,0-.546-1.89,1.872,1.872,0,0,0-1.54-.672,1.852,1.852,0,0,0-1.533.672,3,3,0,0,0-.539,1.918,3.029,3.029,0,0,0,.539,1.925A1.844,1.844,0,0,0-3.9,18.16Zm4.942-5.978H2.177V19H1.043ZM2.3,9.228V10.5H.931V9.228Zm1.988-.1H5.425V19H4.291Zm8.96,6.636H8.267a2.685,2.685,0,0,0,.644,1.8,2.208,2.208,0,0,0,1.666.609,3.375,3.375,0,0,0,2.184-.812l.378.826a3.2,3.2,0,0,1-1.148.665,4.294,4.294,0,0,1-1.428.245A3.353,3.353,0,0,1,8.05,18.16a3.547,3.547,0,0,1-.917-2.59,4.065,4.065,0,0,1,.406-1.855A3.029,3.029,0,0,1,8.68,12.462a3.15,3.15,0,0,1,1.673-.448,2.667,2.667,0,0,1,2.128.889,3.608,3.608,0,0,1,.77,2.443ZM10.367,12.9a1.9,1.9,0,0,0-1.435.56A2.559,2.559,0,0,0,8.3,15.038h3.962a2.425,2.425,0,0,0-.518-1.589A1.737,1.737,0,0,0,10.367,12.9ZM24.577,9.13V19H23.443V17.754a2.25,2.25,0,0,1-.9.994,2.7,2.7,0,0,1-1.393.35,2.828,2.828,0,0,1-1.582-.448A2.957,2.957,0,0,1,18.5,17.4a4.353,4.353,0,0,1-.378-1.869A4.271,4.271,0,0,1,18.5,13.68a2.807,2.807,0,0,1,2.646-1.666,2.7,2.7,0,0,1,1.393.35,2.25,2.25,0,0,1,.9.994V9.13Zm-3.206,9.03a1.844,1.844,0,0,0,1.533-.679,3.029,3.029,0,0,0,.539-1.925,3,3,0,0,0-.539-1.918,1.852,1.852,0,0,0-1.533-.672,1.892,1.892,0,0,0-1.547.672,2.9,2.9,0,0,0-.553,1.89,3.035,3.035,0,0,0,.553,1.939A1.867,1.867,0,0,0,21.371,18.16Zm11.018-2.394H27.405a2.685,2.685,0,0,0,.644,1.8,2.208,2.208,0,0,0,1.666.609,3.375,3.375,0,0,0,2.184-.812l.378.826a3.2,3.2,0,0,1-1.148.665A4.294,4.294,0,0,1,29.7,19.1a3.353,3.353,0,0,1-2.513-.938,3.547,3.547,0,0,1-.917-2.59,4.065,4.065,0,0,1,.406-1.855,3.029,3.029,0,0,1,1.141-1.253,3.15,3.15,0,0,1,1.673-.448,2.667,2.667,0,0,1,2.128.889,3.608,3.608,0,0,1,.77,2.443ZM29.505,12.9a1.9,1.9,0,0,0-1.435.56,2.559,2.559,0,0,0-.637,1.582H31.4a2.425,2.425,0,0,0-.518-1.589A1.737,1.737,0,0,0,29.505,12.9Zm10.486-.7L37.051,19H35.987l-2.926-6.8h1.2l2.282,5.572,2.31-5.572Zm1.176-.014H42.3V19H41.167Zm1.26-2.954V10.5H41.055V9.228ZM47.3,19.1a3.4,3.4,0,0,1-1.75-.434,2.9,2.9,0,0,1-1.141-1.225,4.07,4.07,0,0,1-.4-1.855,4.04,4.04,0,0,1,.413-1.869,3.046,3.046,0,0,1,1.162-1.253,3.358,3.358,0,0,1,1.757-.448,3.823,3.823,0,0,1,1.344.245,2.919,2.919,0,0,1,1.064.651l-.378.84a3.1,3.1,0,0,0-1.96-.784,2.042,2.042,0,0,0-1.638.686,2.88,2.88,0,0,0-.588,1.932,2.8,2.8,0,0,0,.588,1.9,2.062,2.062,0,0,0,1.638.672,3.1,3.1,0,0,0,1.96-.784l.378.84a3.136,3.136,0,0,1-1.092.644A3.963,3.963,0,0,1,47.3,19.1Zm9.534-3.332H51.849a2.685,2.685,0,0,0,.644,1.8,2.208,2.208,0,0,0,1.666.609,3.375,3.375,0,0,0,2.184-.812l.378.826a3.2,3.2,0,0,1-1.148.665,4.294,4.294,0,0,1-1.428.245,3.353,3.353,0,0,1-2.513-.938,3.547,3.547,0,0,1-.917-2.59,4.065,4.065,0,0,1,.406-1.855,3.029,3.029,0,0,1,1.141-1.253,3.15,3.15,0,0,1,1.673-.448,2.667,2.667,0,0,1,2.128.889,3.608,3.608,0,0,1,.77,2.443ZM53.949,12.9a1.9,1.9,0,0,0-1.435.56,2.559,2.559,0,0,0-.637,1.582h3.962a2.425,2.425,0,0,0-.518-1.589A1.737,1.737,0,0,0,53.949,12.9Zm6.86,6.2a4,4,0,0,1-2.73-.882l.378-.84A3.653,3.653,0,0,0,59.57,18a4.04,4.04,0,0,0,1.281.189,2.128,2.128,0,0,0,1.155-.259.839.839,0,0,0,.4-.749.821.821,0,0,0-.266-.644,2.006,2.006,0,0,0-.882-.378l-1.148-.266a2.6,2.6,0,0,1-1.33-.672,1.623,1.623,0,0,1-.462-1.176,1.779,1.779,0,0,1,.714-1.47,3,3,0,0,1,1.9-.56,3.991,3.991,0,0,1,1.358.231,2.867,2.867,0,0,1,1.078.665l-.378.826a3.107,3.107,0,0,0-2.058-.8,1.952,1.952,0,0,0-1.113.273.954.954,0,0,0-.154,1.414,1.625,1.625,0,0,0,.791.371l1.162.28a2.946,2.946,0,0,1,1.414.679,1.587,1.587,0,0,1,.462,1.183,1.685,1.685,0,0,1-.721,1.428A3.248,3.248,0,0,1,60.809,19.1Z" transform="translate(1315 2519)" fill="#fff"/>
    <path id="Path_14" data-name="Path 14" d="M-30.835-9.87V0h-1.05l.014-7.644-3.206,6.076h-.812l-3.22-6.02L-39.1,0h-1.064V-9.87h.952l3.738,7.154,3.7-7.154ZM-25.725.1a3.282,3.282,0,0,1-1.7-.434A2.892,2.892,0,0,1-28.56-1.575a4.158,4.158,0,0,1-.4-1.869,4.158,4.158,0,0,1,.4-1.869,2.892,2.892,0,0,1,1.134-1.239,3.282,3.282,0,0,1,1.7-.434,3.32,3.32,0,0,1,1.708.434,2.879,2.879,0,0,1,1.141,1.239,4.158,4.158,0,0,1,.4,1.869,4.158,4.158,0,0,1-.4,1.869A2.879,2.879,0,0,1-24.017-.336,3.32,3.32,0,0,1-25.725.1Zm0-.938A1.876,1.876,0,0,0-24.178-1.5a3.019,3.019,0,0,0,.539-1.939,3,3,0,0,0-.546-1.925,1.864,1.864,0,0,0-1.54-.679,1.864,1.864,0,0,0-1.54.679,3,3,0,0,0-.546,1.925,3.024,3.024,0,0,0,.539,1.932A1.868,1.868,0,0,0-25.725-.84Zm8.372-6.146a2.9,2.9,0,0,1,1.582.434A2.87,2.87,0,0,1-14.707-5.32a4.271,4.271,0,0,1,.378,1.848A4.353,4.353,0,0,1-14.707-1.6,2.957,2.957,0,0,1-15.771-.35,2.828,2.828,0,0,1-17.353.1a2.7,2.7,0,0,1-1.393-.35,2.25,2.25,0,0,1-.9-.994V0h-1.134V-9.87h1.134v4.228a2.25,2.25,0,0,1,.9-.994A2.7,2.7,0,0,1-17.353-6.986ZM-17.577-.84a1.848,1.848,0,0,0,1.54-.693,3.062,3.062,0,0,0,.546-1.939,2.922,2.922,0,0,0-.546-1.89,1.872,1.872,0,0,0-1.54-.672,1.852,1.852,0,0,0-1.533.672,3,3,0,0,0-.539,1.918,3.029,3.029,0,0,0,.539,1.925A1.844,1.844,0,0,0-17.577-.84Zm4.942-5.978H-11.5V0h-1.134Zm1.26-2.954V-8.5h-1.372V-9.772Zm1.988-.1h1.134V0H-9.387Zm8.96,6.636H-5.411a2.685,2.685,0,0,0,.644,1.8A2.208,2.208,0,0,0-3.1-.826,3.375,3.375,0,0,0-.917-1.638l.378.826a3.2,3.2,0,0,1-1.148.665A4.294,4.294,0,0,1-3.115.1,3.353,3.353,0,0,1-5.628-.84a3.547,3.547,0,0,1-.917-2.59,4.065,4.065,0,0,1,.406-1.855A3.029,3.029,0,0,1-5-6.538a3.15,3.15,0,0,1,1.673-.448A2.667,2.667,0,0,1-1.2-6.1a3.608,3.608,0,0,1,.77,2.443ZM-3.311-6.1a1.9,1.9,0,0,0-1.435.56,2.559,2.559,0,0,0-.637,1.582h3.962a2.425,2.425,0,0,0-.518-1.589A1.737,1.737,0,0,0-3.311-6.1Zm13.9-.714V0H9.485V-1.162a2.219,2.219,0,0,1-.9.938A2.654,2.654,0,0,1,7.273.1,2.352,2.352,0,0,1,5.439-.581,2.9,2.9,0,0,1,4.823-2.59V-6.818H5.957v4.2a2.034,2.034,0,0,0,.364,1.337,1.428,1.428,0,0,0,1.148.427,1.886,1.886,0,0,0,1.442-.581,2.148,2.148,0,0,0,.546-1.533v-3.85ZM15.015.1a4,4,0,0,1-2.73-.882l.378-.84A3.653,3.653,0,0,0,13.776-1a4.04,4.04,0,0,0,1.281.189,2.128,2.128,0,0,0,1.155-.259.839.839,0,0,0,.4-.749.821.821,0,0,0-.266-.644,2.006,2.006,0,0,0-.882-.378l-1.148-.266a2.6,2.6,0,0,1-1.33-.672,1.623,1.623,0,0,1-.462-1.176,1.779,1.779,0,0,1,.714-1.47,3,3,0,0,1,1.9-.56,3.991,3.991,0,0,1,1.358.231,2.867,2.867,0,0,1,1.078.665l-.378.826a3.107,3.107,0,0,0-2.058-.8,1.952,1.952,0,0,0-1.113.273.873.873,0,0,0-.4.763.88.88,0,0,0,.245.651A1.625,1.625,0,0,0,14.665-4l1.162.28a2.946,2.946,0,0,1,1.414.679A1.587,1.587,0,0,1,17.7-1.862a1.685,1.685,0,0,1-.721,1.428A3.248,3.248,0,0,1,15.015.1ZM22.2-6.986a2.569,2.569,0,0,1,1.939.665A2.828,2.828,0,0,1,24.773-4.3V0H23.667V-1.162a2,2,0,0,1-.812.931A2.393,2.393,0,0,1,21.595.1a2.757,2.757,0,0,1-1.211-.266,2.164,2.164,0,0,1-.875-.742,1.834,1.834,0,0,1-.322-1.05,1.7,1.7,0,0,1,.392-1.2,2.378,2.378,0,0,1,1.288-.616,12.726,12.726,0,0,1,2.492-.189h.308v-.462a1.811,1.811,0,0,0-.35-1.239,1.467,1.467,0,0,0-1.134-.385,4.368,4.368,0,0,0-2.338.728l-.378-.826a4.471,4.471,0,0,1,1.281-.609A4.908,4.908,0,0,1,22.2-6.986ZM21.749-.8a1.819,1.819,0,0,0,1.379-.567,2.037,2.037,0,0,0,.539-1.463v-.406h-.252a12.531,12.531,0,0,0-1.876.105,1.823,1.823,0,0,0-.917.35.919.919,0,0,0-.273.721,1.159,1.159,0,0,0,.4.9A1.445,1.445,0,0,0,21.749-.8Zm11.2-6.02V-.462a3.107,3.107,0,0,1-.784,2.3,3.17,3.17,0,0,1-2.324.777,4.836,4.836,0,0,1-3.01-.924l.378-.84A5.52,5.52,0,0,0,28.5,1.5a4.327,4.327,0,0,0,1.344.2,1.964,1.964,0,0,0,1.484-.525,2.13,2.13,0,0,0,.5-1.533v-1.2a2.135,2.135,0,0,1-.9,1.008,2.831,2.831,0,0,1-1.435.35A3,3,0,0,1,27.9-.63a2.84,2.84,0,0,1-1.078-1.19A3.925,3.925,0,0,1,26.439-3.6a3.925,3.925,0,0,1,.385-1.778A2.84,2.84,0,0,1,27.9-6.566a3,3,0,0,1,1.589-.42,2.763,2.763,0,0,1,1.414.35,2.238,2.238,0,0,1,.91.994V-6.818Zm-3.234,5.67a1.924,1.924,0,0,0,1.54-.651,2.67,2.67,0,0,0,.56-1.8,2.67,2.67,0,0,0-.553-1.785,1.92,1.92,0,0,0-1.547-.651,1.962,1.962,0,0,0-1.561.651A2.626,2.626,0,0,0,27.587-3.6a2.648,2.648,0,0,0,.567,1.8A1.962,1.962,0,0,0,29.715-1.148ZM40.761-3.234H35.777a2.685,2.685,0,0,0,.644,1.8,2.208,2.208,0,0,0,1.666.609,3.375,3.375,0,0,0,2.184-.812l.378.826A3.2,3.2,0,0,1,39.5-.147,4.294,4.294,0,0,1,38.073.1,3.353,3.353,0,0,1,35.56-.84a3.547,3.547,0,0,1-.917-2.59,4.065,4.065,0,0,1,.406-1.855A3.029,3.029,0,0,1,36.19-6.538a3.15,3.15,0,0,1,1.673-.448,2.667,2.667,0,0,1,2.128.889,3.608,3.608,0,0,1,.77,2.443ZM37.877-6.1a1.9,1.9,0,0,0-1.435.56,2.559,2.559,0,0,0-.637,1.582h3.962a2.425,2.425,0,0,0-.518-1.589A1.737,1.737,0,0,0,37.877-6.1Z" transform="translate(1008 2519)" fill="#fff"/>
    <path id="Path_16" data-name="Path 16" d="M-45.409-9.87h3.318A4.983,4.983,0,0,1-38.43-8.589a4.9,4.9,0,0,1,1.3,3.647,4.927,4.927,0,0,1-1.3,3.654A4.967,4.967,0,0,1-42.091,0h-3.318Zm3.248,8.89q3.836,0,3.836-3.962T-42.161-8.89h-2.1V-.98Zm12.642-2.254H-34.5a2.685,2.685,0,0,0,.644,1.8,2.208,2.208,0,0,0,1.666.609,3.375,3.375,0,0,0,2.184-.812l.378.826a3.2,3.2,0,0,1-1.148.665A4.294,4.294,0,0,1-32.207.1,3.353,3.353,0,0,1-34.72-.84a3.547,3.547,0,0,1-.917-2.59,4.065,4.065,0,0,1,.406-1.855A3.029,3.029,0,0,1-34.09-6.538a3.15,3.15,0,0,1,1.673-.448,2.667,2.667,0,0,1,2.128.889,3.608,3.608,0,0,1,.77,2.443ZM-32.4-6.1a1.9,1.9,0,0,0-1.435.56,2.559,2.559,0,0,0-.637,1.582h3.962a2.425,2.425,0,0,0-.518-1.589A1.737,1.737,0,0,0-32.4-6.1Zm6.86,6.2a4,4,0,0,1-2.73-.882l.378-.84A3.653,3.653,0,0,0-26.782-1,4.04,4.04,0,0,0-25.5-.812a2.128,2.128,0,0,0,1.155-.259.839.839,0,0,0,.4-.749.821.821,0,0,0-.266-.644,2.006,2.006,0,0,0-.882-.378l-1.148-.266a2.6,2.6,0,0,1-1.33-.672,1.623,1.623,0,0,1-.462-1.176,1.779,1.779,0,0,1,.714-1.47,3,3,0,0,1,1.9-.56,3.991,3.991,0,0,1,1.358.231,2.867,2.867,0,0,1,1.078.665l-.378.826a3.107,3.107,0,0,0-2.058-.8,1.952,1.952,0,0,0-1.113.273.873.873,0,0,0-.4.763.88.88,0,0,0,.245.651A1.625,1.625,0,0,0-25.893-4l1.162.28a2.946,2.946,0,0,1,1.414.679,1.587,1.587,0,0,1,.462,1.183,1.685,1.685,0,0,1-.721,1.428A3.248,3.248,0,0,1-25.543.1Zm9.016-.1L-20-3.262V0h-1.134V-9.87H-20v6.146l3.178-3.08h1.442l-3.388,3.262L-15.057,0Zm5.334-.812a4.554,4.554,0,0,0,.616-.042l-.056.9a4.092,4.092,0,0,1-.7.056,2.468,2.468,0,0,1-1.855-.644,2.47,2.47,0,0,1-.623-1.792V-5.922h-1.33v-.9h1.33V-8.89h1.134v2.072h1.932v.9h-1.932v3.5Q-12.677-.812-11.193-.812ZM-6.6.1A3.282,3.282,0,0,1-8.3-.336,2.892,2.892,0,0,1-9.436-1.575a4.158,4.158,0,0,1-.4-1.869,4.158,4.158,0,0,1,.4-1.869A2.892,2.892,0,0,1-8.3-6.552a3.282,3.282,0,0,1,1.7-.434,3.32,3.32,0,0,1,1.708.434A2.879,2.879,0,0,1-3.752-5.313a4.158,4.158,0,0,1,.4,1.869,4.158,4.158,0,0,1-.4,1.869A2.879,2.879,0,0,1-4.893-.336,3.32,3.32,0,0,1-6.6.1Zm0-.938A1.876,1.876,0,0,0-5.054-1.5a3.019,3.019,0,0,0,.539-1.939,3,3,0,0,0-.546-1.925A1.864,1.864,0,0,0-6.6-6.048a1.864,1.864,0,0,0-1.54.679,3,3,0,0,0-.546,1.925,3.024,3.024,0,0,0,.539,1.932A1.868,1.868,0,0,0-6.6-.84ZM1.771-6.986a2.828,2.828,0,0,1,1.582.448A2.957,2.957,0,0,1,4.417-5.285,4.353,4.353,0,0,1,4.8-3.416a4.26,4.26,0,0,1-.378,1.855A2.9,2.9,0,0,1,3.36-.336,2.886,2.886,0,0,1,1.771.1,2.7,2.7,0,0,1,.378-.252a2.25,2.25,0,0,1-.9-.994V2.52H-1.659V-6.818H-.525v1.176a2.25,2.25,0,0,1,.9-.994A2.7,2.7,0,0,1,1.771-6.986ZM1.547-.84a1.872,1.872,0,0,0,1.54-.672,2.947,2.947,0,0,0,.546-1.9,3.037,3.037,0,0,0-.546-1.925,1.848,1.848,0,0,0-1.54-.693,1.852,1.852,0,0,0-1.533.672A3,3,0,0,0-.525-3.444,3.029,3.029,0,0,0,.014-1.519,1.844,1.844,0,0,0,1.547-.84ZM15.841-6.818V0H14.735V-1.162a2.219,2.219,0,0,1-.9.938A2.654,2.654,0,0,1,12.523.1a2.352,2.352,0,0,1-1.834-.679,2.9,2.9,0,0,1-.616-2.009V-6.818h1.134v4.2a2.034,2.034,0,0,0,.364,1.337,1.428,1.428,0,0,0,1.148.427,1.886,1.886,0,0,0,1.442-.581,2.148,2.148,0,0,0,.546-1.533v-3.85ZM20.265.1a4,4,0,0,1-2.73-.882l.378-.84A3.653,3.653,0,0,0,19.026-1a4.04,4.04,0,0,0,1.281.189,2.128,2.128,0,0,0,1.155-.259.839.839,0,0,0,.4-.749.821.821,0,0,0-.266-.644,2.006,2.006,0,0,0-.882-.378l-1.148-.266a2.6,2.6,0,0,1-1.33-.672,1.623,1.623,0,0,1-.462-1.176,1.779,1.779,0,0,1,.714-1.47,3,3,0,0,1,1.9-.56,3.991,3.991,0,0,1,1.358.231,2.867,2.867,0,0,1,1.078.665l-.378.826a3.107,3.107,0,0,0-2.058-.8,1.952,1.952,0,0,0-1.113.273.873.873,0,0,0-.4.763.88.88,0,0,0,.245.651A1.625,1.625,0,0,0,19.915-4l1.162.28a2.946,2.946,0,0,1,1.414.679,1.587,1.587,0,0,1,.462,1.183,1.685,1.685,0,0,1-.721,1.428A3.248,3.248,0,0,1,20.265.1Zm7.182-7.084a2.569,2.569,0,0,1,1.939.665A2.828,2.828,0,0,1,30.023-4.3V0H28.917V-1.162a2,2,0,0,1-.812.931A2.393,2.393,0,0,1,26.845.1a2.757,2.757,0,0,1-1.211-.266,2.164,2.164,0,0,1-.875-.742,1.834,1.834,0,0,1-.322-1.05,1.7,1.7,0,0,1,.392-1.2,2.378,2.378,0,0,1,1.288-.616,12.726,12.726,0,0,1,2.492-.189h.308v-.462a1.811,1.811,0,0,0-.35-1.239,1.467,1.467,0,0,0-1.134-.385,4.368,4.368,0,0,0-2.338.728l-.378-.826A4.471,4.471,0,0,1,26-6.755,4.908,4.908,0,0,1,27.447-6.986ZM27-.8a1.819,1.819,0,0,0,1.379-.567,2.037,2.037,0,0,0,.539-1.463v-.406h-.252a12.531,12.531,0,0,0-1.876.105,1.823,1.823,0,0,0-.917.35.919.919,0,0,0-.273.721,1.159,1.159,0,0,0,.4.9A1.445,1.445,0,0,0,27-.8Zm11.2-6.02V-.462a3.107,3.107,0,0,1-.784,2.3,3.17,3.17,0,0,1-2.324.777,4.836,4.836,0,0,1-3.01-.924l.378-.84a5.52,5.52,0,0,0,1.288.644,4.327,4.327,0,0,0,1.344.2,1.964,1.964,0,0,0,1.484-.525,2.13,2.13,0,0,0,.5-1.533v-1.2a2.135,2.135,0,0,1-.9,1.008,2.831,2.831,0,0,1-1.435.35,3,3,0,0,1-1.589-.42,2.84,2.84,0,0,1-1.078-1.19A3.925,3.925,0,0,1,31.689-3.6a3.925,3.925,0,0,1,.385-1.778,2.84,2.84,0,0,1,1.078-1.19,3,3,0,0,1,1.589-.42,2.763,2.763,0,0,1,1.414.35,2.238,2.238,0,0,1,.91.994V-6.818Zm-3.234,5.67A1.924,1.924,0,0,0,36.5-1.8a2.67,2.67,0,0,0,.56-1.8,2.67,2.67,0,0,0-.553-1.785,1.92,1.92,0,0,0-1.547-.651,1.962,1.962,0,0,0-1.561.651A2.626,2.626,0,0,0,32.837-3.6,2.648,2.648,0,0,0,33.4-1.8,1.962,1.962,0,0,0,34.965-1.148ZM46.011-3.234H41.027a2.685,2.685,0,0,0,.644,1.8,2.208,2.208,0,0,0,1.666.609,3.375,3.375,0,0,0,2.184-.812l.378.826a3.2,3.2,0,0,1-1.148.665A4.294,4.294,0,0,1,43.323.1,3.353,3.353,0,0,1,40.81-.84a3.547,3.547,0,0,1-.917-2.59A4.065,4.065,0,0,1,40.3-5.285,3.029,3.029,0,0,1,41.44-6.538a3.15,3.15,0,0,1,1.673-.448,2.667,2.667,0,0,1,2.128.889,3.608,3.608,0,0,1,.77,2.443ZM43.127-6.1a1.9,1.9,0,0,0-1.435.56,2.559,2.559,0,0,0-.637,1.582h3.962A2.425,2.425,0,0,0,44.5-5.551,1.737,1.737,0,0,0,43.127-6.1Z" transform="translate(1619 2519)" fill="#fff"/>
    <path id="Path_17" data-name="Path 17" d="M-13.07-2.08V0h-9.48V-1.9l4.8-5.16a7.9,7.9,0,0,0,1.23-1.69,3.363,3.363,0,0,0,.39-1.53,1.841,1.841,0,0,0-.55-1.45,2.349,2.349,0,0,0-1.61-.49,6.308,6.308,0,0,0-3.82,1.46l-.86-1.88a6.314,6.314,0,0,1,2.15-1.19,8.049,8.049,0,0,1,2.63-.45,5.064,5.064,0,0,1,3.36,1.04,3.466,3.466,0,0,1,1.24,2.8,5.17,5.17,0,0,1-.52,2.29,10.149,10.149,0,0,1-1.76,2.39l-3.46,3.68ZM-5.99.18A4.4,4.4,0,0,1-9.81-1.67a9.228,9.228,0,0,1-1.32-5.39A9.1,9.1,0,0,1-9.81-12.4a4.41,4.41,0,0,1,3.82-1.84A4.41,4.41,0,0,1-2.17-12.4,9.1,9.1,0,0,1-.85-7.06,9.236,9.236,0,0,1-2.17-1.68,4.394,4.394,0,0,1-5.99.18Zm0-2.02A2.069,2.069,0,0,0-4.01-3.09a9.454,9.454,0,0,0,.62-3.97,9.244,9.244,0,0,0-.62-3.93,2.072,2.072,0,0,0-1.98-1.23,2.072,2.072,0,0,0-1.98,1.23,9.244,9.244,0,0,0-.62,3.93,9.454,9.454,0,0,0,.62,3.97A2.069,2.069,0,0,0-5.99-1.84Zm16.98-.24V0H2.29V-2.08H5.35v-9.08L2.93-9.7,1.91-11.58,6.09-14.1H7.93V-2.08Zm9.72-5.16A3.417,3.417,0,0,1,22.62-6a3.58,3.58,0,0,1,.67,2.2,3.434,3.434,0,0,1-1.4,2.91A6.343,6.343,0,0,1,18.01.16,6.343,6.343,0,0,1,14.13-.89a3.434,3.434,0,0,1-1.4-2.91,3.587,3.587,0,0,1,.68-2.21,3.351,3.351,0,0,1,1.92-1.23,3.472,3.472,0,0,1-1.66-1.25,3.362,3.362,0,0,1-.6-1.99,3.324,3.324,0,0,1,1.32-2.78,5.783,5.783,0,0,1,3.62-1.02,5.783,5.783,0,0,1,3.62,1.02,3.324,3.324,0,0,1,1.32,2.78,3.441,3.441,0,0,1-.6,2.02A3.23,3.23,0,0,1,20.71-7.24Zm-2.7-5.02q-2.5,0-2.5,2.04a1.911,1.911,0,0,0,.63,1.55,2.844,2.844,0,0,0,1.87.53,2.844,2.844,0,0,0,1.87-.53,1.911,1.911,0,0,0,.63-1.55Q20.51-12.26,18.01-12.26Zm0,10.4q2.86,0,2.86-2.14T18.01-6.14q-2.86,0-2.86,2.14T18.01-1.86Z" transform="translate(1620 2368)" fill="#fff"/>
    <path id="Path_9" data-name="Path 9" d="M-13.07-2.08V0h-9.48V-1.9l4.8-5.16a7.9,7.9,0,0,0,1.23-1.69,3.363,3.363,0,0,0,.39-1.53,1.841,1.841,0,0,0-.55-1.45,2.349,2.349,0,0,0-1.61-.49,6.308,6.308,0,0,0-3.82,1.46l-.86-1.88a6.314,6.314,0,0,1,2.15-1.19,8.049,8.049,0,0,1,2.63-.45,5.064,5.064,0,0,1,3.36,1.04,3.466,3.466,0,0,1,1.24,2.8,5.17,5.17,0,0,1-.52,2.29,10.149,10.149,0,0,1-1.76,2.39l-3.46,3.68ZM-5.99.18A4.4,4.4,0,0,1-9.81-1.67a9.228,9.228,0,0,1-1.32-5.39A9.1,9.1,0,0,1-9.81-12.4a4.41,4.41,0,0,1,3.82-1.84A4.41,4.41,0,0,1-2.17-12.4,9.1,9.1,0,0,1-.85-7.06,9.236,9.236,0,0,1-2.17-1.68,4.394,4.394,0,0,1-5.99.18Zm0-2.02A2.069,2.069,0,0,0-4.01-3.09a9.454,9.454,0,0,0,.62-3.97,9.244,9.244,0,0,0-.62-3.93,2.072,2.072,0,0,0-1.98-1.23,2.072,2.072,0,0,0-1.98,1.23,9.244,9.244,0,0,0-.62,3.93,9.454,9.454,0,0,0,.62,3.97A2.069,2.069,0,0,0-5.99-1.84Zm16.98-.24V0H2.29V-2.08H5.35v-9.08L2.93-9.7,1.91-11.58,6.09-14.1H7.93V-2.08Zm9.72-5.16A3.417,3.417,0,0,1,22.62-6a3.58,3.58,0,0,1,.67,2.2,3.434,3.434,0,0,1-1.4,2.91A6.343,6.343,0,0,1,18.01.16,6.343,6.343,0,0,1,14.13-.89a3.434,3.434,0,0,1-1.4-2.91,3.587,3.587,0,0,1,.68-2.21,3.351,3.351,0,0,1,1.92-1.23,3.472,3.472,0,0,1-1.66-1.25,3.362,3.362,0,0,1-.6-1.99,3.324,3.324,0,0,1,1.32-2.78,5.783,5.783,0,0,1,3.62-1.02,5.783,5.783,0,0,1,3.62,1.02,3.324,3.324,0,0,1,1.32,2.78,3.441,3.441,0,0,1-.6,2.02A3.23,3.23,0,0,1,20.71-7.24Zm-2.7-5.02q-2.5,0-2.5,2.04a1.911,1.911,0,0,0,.63,1.55,2.844,2.844,0,0,0,1.87.53,2.844,2.844,0,0,0,1.87-.53,1.911,1.911,0,0,0,.63-1.55Q20.51-12.26,18.01-12.26Zm0,10.4q2.86,0,2.86-2.14T18.01-6.14q-2.86,0-2.86,2.14T18.01-1.86Z" transform="translate(1015 2368)" fill="#fff"/>
  </g>
</svg>
